<svg width="649" height="336" viewBox="0 0 649 336" fill="none" xmlns="http://www.w3.org/2000/svg">
<path d="M93.3294 20.1271C83.2849 24.3976 74.2993 30.5254 65.7882 37.1456C56.1027 44.6795 47.4235 53.4829 39.6705 63.0066C33.6575 70.3928 27.389 77.9099 23.2029 86.3458C19.2952 94.2206 15.0356 102.002 12.0561 110.499C6.29698 126.922 1.74917 143.436 0.841223 160.844C0.522543 166.954 -0.509317 173.34 0.308173 179.134C2.2087 192.605 4.68592 206.017 8.28273 219.28C12.5092 234.864 20.0632 248.553 28.4319 261.911C34.3179 271.306 41.0237 280.274 49.6812 287.449C55.0214 291.874 59.3722 297.278 65.0845 301.422C73.111 307.243 81.4408 312.396 90.1095 317.163C100.392 322.817 111.36 326.79 122.517 329.862C137.953 334.112 153.895 334.955 169.94 334.46C179.844 334.154 189.8 334.517 199.693 335.176C213.479 336.095 227.2 334.932 240.91 334.242C251.277 333.721 261.849 333.539 271.826 330.035C274.992 328.923 278.604 329.231 281.355 327.617C287.167 324.207 293.827 323.047 299.75 319.74C304.42 317.132 309.311 314.956 313.731 311.785C318.208 308.573 322.699 305.462 327.016 301.987C331.886 298.065 336.847 294.152 340.714 289.432C348.86 279.486 358.626 271.111 366.835 261.249C372.713 254.187 379.107 247.554 385.271 240.729C391.569 233.757 397.809 226.731 404.179 219.825C412.674 210.616 421.432 201.644 429.776 192.302C437.018 184.193 444.161 176.024 451.826 168.286C455.078 165.003 459.352 162.012 460.424 156.488C456.568 156.016 452.866 154.775 449.425 155.288C437.874 157.01 426.375 154.865 414.837 155.323C409.094 155.551 403.284 156.154 397.51 155.845C387.865 155.33 378.789 157.561 370.233 161.689C360.244 166.509 352.554 174.334 345.179 182.384C341.56 186.335 338.776 191.09 334.961 194.812C327.771 201.83 321.5 209.644 314.777 217.06C309.697 222.664 305.105 228.86 299.915 234.214C294.441 239.862 289.347 245.911 284.034 251.656C271.197 265.533 255.485 273.106 237.234 275.09C227.585 276.139 217.693 276.073 207.864 275.324C201.346 274.827 194.671 276.267 188.169 275.687C180.392 274.993 172.654 275.643 164.899 275.346C157.483 275.062 150.206 275.172 143.066 272.594C137.676 270.648 132.064 269.325 126.608 267.521C119.037 265.017 112.383 260.949 106.329 256.574C97.5357 250.219 89.7453 242.497 82.9083 233.635C71.1989 218.459 64.5151 201.698 61.8768 182.927C58.8661 161.506 63.1727 141.447 72.8959 122.487C77.7474 113.027 83.6876 104.301 91.6588 96.8454C95.3841 93.3613 99.711 90.2593 102.773 86.2377C106.99 80.7003 113.208 78.319 118.762 75.227C122.816 72.9704 127.684 71.3088 131.904 69.3304C144.823 63.2732 158.371 61.3448 172.161 60.9097C189.806 60.3529 207.485 60.7436 225.147 60.8816C246.636 61.0494 268.133 59.9992 289.609 61.2991C291.941 61.4403 293.906 60.4211 294.872 59.0437C297.275 55.6162 300.596 53.1783 303.424 50.2537C311.726 41.6682 319.158 32.3657 328.428 24.5234C336.175 17.969 344.15 12.4516 353.082 7.92246C356.281 6.30039 359.005 3.74198 362.338 1.32685C359.756 -0.258996 357.716 0.150763 355.783 0.150214C292.289 0.132788 228.795 0.118414 165.301 0.165381C154.367 0.173468 143.569 2.26005 133.079 4.74366C119.495 7.96024 106.308 12.9261 93.3294 20.1271ZM403.424 7.4495C392.124 11.5277 380.798 15.4472 370.628 22.1602C361.697 28.0552 352.795 33.9049 345.45 41.795C339.745 47.9241 333.332 53.2529 328.319 60.2239C324.639 65.3426 320.423 70.485 315.658 74.8424C310.757 79.3246 307.742 85.2679 303.086 89.9325C298.371 94.6574 294.139 99.8364 290.18 105.25C287.954 108.295 285.878 111.802 283.148 114.087C276.961 119.266 272.847 126.123 267.328 131.824C260.517 138.859 255.054 147.181 248.759 154.738C242.925 161.741 236.682 168.402 230.812 175.377C229.665 176.739 228.5 178 228.5 179.5C229.619 180.242 229.829 180.242 230.812 180.242C242.025 180.242 252.461 179.697 262.913 180.242C271.379 180.684 279.818 181.126 288.259 180.727C291.941 180.552 295.59 180.384 299.232 180.79C309.605 181.945 317.172 176.759 323.752 169.756C328.468 164.737 332.43 158.996 337.26 154.101C342.787 148.5 347.216 142.035 352.431 136.198C360.098 127.615 367.378 118.688 374.945 110.015C379.256 105.074 384.061 100.55 388.198 95.4751C395.618 86.3721 403.602 78.0579 414.19 72.5414C425.557 66.6194 437.429 61.7586 450.28 61.6631C494.268 61.3363 538.261 61.5535 582.252 61.6867C588.924 61.7069 595.236 61.656 598.52 54.3536C598.889 53.5327 599.98 53.0356 600.738 52.3902C605.255 48.5433 609.16 44.0077 613.061 39.6463C617.896 34.2408 623.043 29.0944 628.13 24.0103C632.096 20.0463 635.361 15.4407 639.722 11.7909C643.248 8.83987 645.896 4.83997 648.958 1.27762C647.064 -0.52102 645.129 0.105902 643.394 0.105292C575.067 0.0807562 506.738 -0.10708 438.414 0.312323C426.776 0.383765 415.09 2.76243 403.424 7.4495ZM431.475 263.79C421.604 264.075 411.695 263.349 401.872 264.904C398.664 265.412 396.409 267.369 393.863 269.32C387.111 274.495 383.573 282.305 377.359 287.969C370.179 294.512 364.318 302.481 357.328 309.257C349.399 316.944 342.077 325.555 331.307 329.718C330.578 330 330.536 331.121 331.269 332.92C430.477 333.724 530.057 333.321 629.984 332.825C628.603 327.043 624.681 324.974 622.079 321.932C616.188 315.045 610.167 308.206 603.602 301.977C594.707 293.536 586.406 284.583 578.204 275.494C572.047 268.673 565.702 262.58 554.952 263.864C542.033 265.408 528.975 263.514 515.947 263.966C509.589 264.187 502.98 263.504 496.65 263.733C475.193 264.509 453.755 263.695 431.475 263.79Z" fill="currentColor"/>
</svg>
