<svg width="830" height="471" viewBox="0 0 830 471" fill="none" xmlns="http://www.w3.org/2000/svg">
<path d="M220.057 2.09695C267.052 2.09695 313.552 2.13149 360.051 2.05279C365.804 2.04302 371.57 1.58691 377.302 1.04302C381.256 0.667902 382.91 2.7788 382.962 6.08306C383.138 17.0801 383.676 28.1415 382.668 39.0482C382.328 42.7198 378.126 46.3452 375.081 49.3811C370.805 53.6437 365.849 57.2136 361.38 61.2957C348.473 73.0872 335.744 85.0752 322.721 96.737C321.011 98.2682 318.003 98.9884 315.591 98.9997C284.259 99.1464 252.925 98.9924 221.593 99.1327C199.667 99.2308 179.873 106.488 161.11 117.41C148.786 124.585 138.001 133.573 128.654 144.145C119.666 154.312 112.601 165.772 106.786 178.206C101.114 190.333 97.2967 202.946 95.4155 215.909C93.8991 226.358 95.0121 237.195 95.0388 247.86C95.0692 260.017 98.3875 271.547 102.429 282.821C107.731 297.61 115.16 311.306 125.04 323.62C138.634 340.561 155.152 354.07 174.491 363.69C187.734 370.277 201.794 375.499 216.859 376.011C237.096 376.698 257.449 378.075 277.568 376.611C289.929 375.712 302.161 370.661 314.066 366.401C332.519 359.798 350.077 350.787 364.589 337.645C383.43 320.581 400.934 302.04 419.03 284.151C428.677 274.614 438.547 265.294 447.973 255.543C457.833 245.343 469.443 239.446 483.735 239.088C495.654 238.791 507.569 238.242 519.489 238.14C538.322 237.978 557.158 238.137 575.992 238.06C579.346 238.047 582.073 238.578 583.1 242.418C582.515 243.043 581.969 243.655 581.393 244.237C548.612 277.357 515.811 310.459 483.05 343.599C459.373 367.55 436.006 391.814 412.012 415.442C394.549 432.639 373.8 445.156 351.45 455.16C335.452 462.321 318.581 466.091 301.468 469.004C296.309 469.882 290.982 470.016 285.729 470.051C267.396 470.17 249.061 470.251 230.73 470.062C201.404 469.759 173.229 463.922 146.062 452.697C112.929 439.008 84.5419 418.656 60.7305 392.115C42.5025 371.797 27.7314 349.016 18.1314 323.315C12.8769 309.248 8.25637 294.89 4.35938 280.391C2.18275 272.293 1.83027 263.661 1.10108 255.231C0.433069 247.509 0.265284 239.737 0.0508056 231.982C-0.381307 216.358 2.00034 201.03 5.01226 185.761C8.89353 166.085 16.0008 147.572 24.8652 129.671C34.0262 111.171 45.7248 94.289 59.2036 78.7938C72.2985 63.74 87.4373 50.5651 104.153 39.7589C128.017 24.3314 153.453 11.8941 181.882 7.1473C194.375 5.06146 206.998 3.75649 220.057 2.09695Z" fill="currentColor"/>
<path d="M755.22 54.6038C763.021 62.0707 771.253 68.7026 777.929 76.6427C786.971 87.398 795.766 98.594 802.93 110.634C810.942 124.098 817.259 138.604 823.801 152.891C826.31 158.372 827.162 164.59 829.241 170.3C830.372 173.404 829.096 173.781 826.698 173.832C825.699 173.853 824.699 173.836 823.699 173.836C794.206 173.836 764.711 173.662 735.221 174.006C730.248 174.064 727.869 171.753 726.12 168.219C714.625 144.987 697.359 127.207 675.316 113.874C662.84 106.327 649.361 100.899 635.172 98.1323C621.153 95.3986 606.878 95.2008 592.465 96.5811C579.751 97.7985 567.62 100.605 555.724 104.851C540.539 110.271 526.216 117.771 514.683 128.897C481.514 160.896 449.043 193.618 416.246 226.003C409.271 232.891 402.225 239.724 394.879 246.205C393.035 247.832 389.906 248.718 387.362 248.728C348.705 248.883 310.047 248.871 271.389 248.725C269.59 248.718 267.796 247.091 266 246.218C266.846 244.724 267.412 242.952 268.579 241.778C285.842 224.403 303.238 207.159 320.5 189.782C362.083 147.923 403.358 105.752 445.348 64.3069C455.547 54.2412 467.8 46.1697 479.523 37.7585C495.945 25.9761 514.288 17.9676 533.439 11.6387C548.533 6.65026 563.892 3.11437 579.743 1.85064C589.205 1.09622 598.693 -0.160956 608.147 0.0170531C618.199 0.206354 628.277 1.45736 638.246 2.91738C648.93 4.48226 659.651 6.25176 670.085 8.96999C686.572 13.2648 702.411 19.4901 717.001 28.4451C726.605 34.34 736.034 40.53 745.416 46.7756C748.785 49.0182 751.788 51.8103 755.22 54.6038Z" fill="currentColor"/>
<path d="M720.225 313.118C723.178 308.459 725.751 303.993 728.706 299.795C729.47 298.709 731.431 297.921 732.845 297.916C764.33 297.815 795.816 297.841 827.301 297.859C827.766 297.859 828.23 298.071 829.879 298.473C828.043 304.699 826.597 310.908 824.393 316.834C817.255 336.021 808.109 354.271 796.688 371.242C791.433 379.052 785.039 386.121 778.913 393.314C766.224 408.214 751.262 420.532 734.986 431.308C717.482 442.897 698.949 452.41 678.906 458.79C664.732 463.301 650.353 467.196 635.412 467.766C611.096 468.694 586.765 469.243 562.436 469.8C552.779 470.021 543.113 469.836 533.45 469.836C512.628 469.836 491.806 469.754 470.984 469.9C466.463 469.932 464.788 468.27 464.885 463.769C465.094 454.111 464.808 444.442 465.063 434.787C465.116 432.771 466.109 430.241 467.55 428.884C479.785 417.358 492.247 406.074 504.592 394.665C510.447 389.255 516.11 383.635 522.049 378.322C523.77 376.783 526.1 375.097 528.232 374.983C540.13 374.345 552.053 373.889 563.966 373.909C578.047 373.932 592.124 374.637 606.206 374.806C629.812 375.088 652.23 370.282 672.847 358.4C689.428 348.844 703.769 336.715 714.92 321.03C716.686 318.545 718.302 315.953 720.225 313.118Z" fill="currentColor"/>
</svg>
