<?xml version="1.0" standalone="no"?>
<!DOCTYPE svg PUBLIC "-//W3C//DTD SVG 20010904//EN"
 "http://www.w3.org/TR/2001/REC-SVG-20010904/DTD/svg10.dtd">
<svg version="1.0" xmlns="http://www.w3.org/2000/svg"
 width="1024.000000pt" height="1024.000000pt" viewBox="0 0 1024.000000 1024.000000"
 preserveAspectRatio="xMidYMid meet">

<g transform="translate(0.000000,1024.000000) scale(0.100000,-0.100000)"
fill="#000000" stroke="none">
<path d="M3310 7275 l0 -45 -144 0 -144 0 6 -45 5 -45 -132 0 -133 0 4 -42 3
-43 -107 -3 -107 -3 -3 -47 -3 -47 -49 -3 c-48 -3 -48 -4 -42 -32 9 -48 -1
-60 -50 -60 l-44 0 0 -45 0 -45 -44 0 -45 0 -3 -47 -3 -48 -40 -1 -40 0 0 -42
0 -42 -47 -6 -48 -7 0 -83 0 -83 -42 -3 c-41 -3 -42 -3 -43 -43 0 -22 -2 -64
-3 -92 l-2 -53 -45 0 -45 0 -2 -177 -3 -178 -42 -3 -43 -3 0 -465 0 -464 45 0
45 0 0 -130 0 -130 50 0 50 0 0 -125 0 -125 45 0 45 0 0 -55 0 -55 45 0 45 0
0 -50 0 -50 40 0 40 0 0 -45 0 -45 50 0 50 0 0 -50 0 -50 44 0 45 0 3 -42 c3
-42 4 -43 38 -43 42 0 50 -9 50 -57 0 -36 1 -37 45 -44 25 -3 56 -4 70 -2 24
5 25 3 25 -38 l0 -44 125 0 125 0 0 -50 0 -50 953 2 952 3 -3 48 -4 47 146 0
c132 0 146 2 146 18 1 16 1 16 11 0 8 -15 24 -18 84 -18 l75 0 0 -50 0 -50
1530 0 1530 0 0 50 0 50 45 0 45 0 0 90 0 90 -40 0 -40 0 0 45 0 45 -50 0 -50
0 0 50 0 50 -45 0 -45 0 0 45 0 45 -45 0 -45 0 0 45 0 45 -44 0 -45 0 -3 48
-3 47 -47 3 -48 3 0 45 0 44 -45 0 -45 0 0 46 0 47 -50 -7 -50 -7 0 52 0 52
-50 -5 -50 -5 0 43 0 44 -660 0 -660 0 0 90 0 90 50 0 50 0 0 89 0 90 43 3 42
3 3 78 3 79 39 -7 40 -7 0 71 0 71 45 0 45 0 0 85 0 85 -375 0 -375 0 0 90 0
90 45 0 45 0 0 50 0 50 56 0 57 0 -5 45 -6 45 59 0 59 0 0 50 0 50 800 0 800
0 0 45 0 45 45 0 45 0 0 45 0 45 50 0 50 0 0 60 0 60 45 0 45 0 0 75 0 75 45
0 45 0 0 50 0 50 45 0 45 0 0 44 c0 47 11 56 73 56 l27 0 0 86 0 86 43 -4 42
-3 3 48 3 47 45 0 44 0 0 55 0 55 40 0 40 0 0 85 0 85 -1485 0 -1485 0 0 45 0
45 -1180 0 -1180 0 0 -45z m687 -141 c-3 -3 -12 -4 -19 -1 -8 3 -5 6 6 6 11 1
17 -2 13 -5z m1558 -36 l0 -43 -135 -2 c-74 -2 -403 1 -730 5 -538 8 -565 9
-285 12 171 2 289 5 262 7 -38 3 -45 6 -34 17 7 7 19 15 27 19 8 3 -55 6 -140
6 -179 1 -483 12 -489 17 -2 2 340 4 760 4 l764 0 0 -42z m2913 0 l-3 -43 -43
0 -42 0 0 -47 0 -48 -50 0 -50 0 0 -50 0 -50 -45 0 -45 0 0 -45 0 -45 -45 0
-45 0 0 -45 0 -45 -45 0 -45 0 0 -45 0 -45 -50 0 -50 0 0 -45 0 -45 -47 0 -48
0 0 -42 0 -43 -47 0 -48 1 0 -48 0 -48 -770 0 -770 0 0 -50 0 -50 -55 0 -55 0
0 -45 0 -45 -95 0 -95 0 0 -45 0 -45 -45 0 -45 0 0 -50 0 -50 -60 0 -60 0 0
-45 0 -45 -50 0 -50 0 0 -50 0 -50 -45 0 -45 0 0 -45 0 -45 -45 0 -45 0 0 -88
0 -88 -52 1 c-29 0 -249 3 -488 5 -239 2 -378 6 -307 7 l127 4 0 34 0 35 180
0 180 0 0 45 0 45 40 0 40 0 0 45 0 45 -62 1 c-35 1 -50 4 -34 6 l28 5 -6 86
c-4 48 -7 104 -8 125 -1 20 -6 37 -10 37 -4 0 -8 6 -8 14 0 8 -7 17 -16 20 -8
3 -12 11 -9 16 4 6 1 18 -6 26 -10 12 -14 12 -21 2 -5 -9 -10 -10 -15 -2 -9
12 -54 14 -47 2 3 -4 -1 -8 -9 -8 -8 0 -17 9 -20 20 -5 18 -1 19 42 14 25 -3
54 -7 64 -9 10 -2 17 3 17 11 0 12 -14 14 -67 12 l-68 -3 -3 -72 -3 -73 -44 0
c-38 0 -45 -3 -45 -20 0 -17 -7 -20 -45 -20 l-45 0 0 50 0 50 45 0 45 0 0 45
0 45 45 0 45 0 0 45 0 45 45 0 45 0 0 50 0 50 44 0 45 0 3 48 3 47 38 0 c36 0
37 1 36 35 -2 30 -3 31 -6 8 -3 -21 -10 -28 -26 -27 -17 1 -18 2 -4 6 24 6 22
43 -3 43 -15 0 -20 -7 -20 -26 0 -14 -4 -23 -9 -20 -5 3 -8 17 -8 30 0 23 3
24 88 31 l89 7 0 33 c0 30 -3 33 -37 38 -24 4 -40 2 -45 -6 -5 -8 -8 -7 -8 6
0 15 11 17 89 17 l90 0 3 43 c3 42 3 42 46 45 42 3 42 3 42 43 l0 39 45 0 45
0 0 49 0 50 43 -1 c23 -1 61 -1 85 0 l42 2 0 45 c0 43 1 44 33 43 17 -1 56 0
85 0 l52 2 0 45 0 45 183 0 184 0 -1 50 -1 50 1143 0 1143 0 -3 -42z m-3081
-120 c-2 -13 -4 -3 -4 22 0 25 2 35 4 23 2 -13 2 -33 0 -45z m-187 -73 l0 -45
-47 2 -48 1 43 4 c42 4 42 4 42 44 0 21 2 39 5 39 3 0 5 -20 5 -45z m-73 -7
c-3 -8 -6 -5 -6 6 -1 11 2 17 5 13 3 -3 4 -12 1 -19z m-104 -125 c-7 -2 -19
-2 -25 0 -7 3 -2 5 12 5 14 0 19 -2 13 -5z m357 -48 c0 -19 -4 -35 -10 -35 -5
0 -10 11 -10 24 0 29 -36 43 -43 17 -3 -11 -5 -9 -6 7 -1 19 4 22 34 22 33 0
35 -2 35 -35z m-443 -32 c-3 -10 -5 -4 -5 12 0 17 2 24 5 18 2 -7 2 -21 0 -30z
m-17 -9 c0 -2 -16 -4 -35 -4 -19 0 -35 4 -35 8 0 4 16 6 35 4 19 -2 35 -6 35
-8z m358 -21 c-10 -2 -28 -2 -40 0 -13 2 -5 4 17 4 22 1 32 -1 23 -4z m-51
-45 c-3 -8 -6 -5 -6 6 -1 11 2 17 5 13 3 -3 4 -12 1 -19z m-549 -15 c-81 -2
-216 -2 -300 0 -84 1 -18 3 147 3 165 0 234 -2 153 -3z m522 -68 c0 -18 -5
-25 -19 -25 -17 0 -18 3 -8 25 15 32 27 32 27 0z m-73 -17 c-3 -7 -5 -2 -5 12
0 14 2 19 5 13 2 -7 2 -19 0 -25z m-1694 -15 c-7 -2 -19 -2 -25 0 -7 3 -2 5
12 5 14 0 19 -2 13 -5z m-165 -80 c-10 -2 -28 -2 -40 0 -13 2 -5 4 17 4 22 1
32 -1 23 -4z m1679 -75 c-2 -13 -4 -5 -4 17 -1 22 1 32 4 23 2 -10 2 -28 0
-40z m2863 14 l0 -38 -42 6 -43 5 38 3 c34 3 37 6 37 33 0 16 2 29 5 29 3 0 5
-17 5 -38z m-1533 -134 c-3 -8 -6 -5 -6 6 -1 11 2 17 5 13 3 -3 4 -12 1 -19z
m-3327 -78 c0 -11 -4 -20 -9 -20 -5 0 -7 9 -4 20 3 11 7 20 9 20 2 0 4 -9 4
-20z m-93 -187 c-2 -16 -4 -3 -4 27 0 30 2 43 4 28 2 -16 2 -40 0 -55z m1573
22 l0 -55 -55 0 -55 0 0 -85 0 -85 -49 0 c-47 0 -50 -2 -56 -30 -4 -16 -4 -39
0 -50 6 -18 2 -20 -44 -20 l-51 0 0 -45 0 -45 -55 0 -55 0 0 -180 0 -180 465
0 465 0 0 -45 0 -45 -45 0 -45 0 0 -50 0 -50 -44 0 -45 0 -3 -42 c-3 -45 -2
-45 -70 -47 l-38 -1 0 -45 0 -45 -50 0 -50 0 0 -45 0 -45 -530 0 -530 0 0 44
0 45 -47 3 -48 3 -5 45 c-5 44 -6 45 -39 42 -39 -4 -51 9 -51 56 0 31 -2 32
-40 32 l-40 0 0 343 c0 188 -3 352 -6 365 -6 21 -3 22 45 22 l51 0 0 49 0 50
48 3 47 3 -1 43 -1 42 55 0 54 0 -4 50 -3 50 463 0 462 0 0 -55z m-1653 -17
c-3 -7 -5 -2 -5 12 0 14 2 19 5 13 2 -7 2 -19 0 -25z m2080 -20 c-3 -8 -6 -5
-6 6 -1 11 2 17 5 13 3 -3 4 -12 1 -19z m-2024 -5 c-7 -2 -21 -2 -30 0 -10 3
-4 5 12 5 17 0 24 -2 18 -5z m-63 -103 c0 -87 -1 -90 -22 -89 -17 1 -19 2 -5
6 14 4 17 17 17 89 0 46 2 84 5 84 3 0 5 -40 5 -90z m1807 4 c-3 -3 -12 -4
-19 -1 -8 3 -5 6 6 6 11 1 17 -2 13 -5z m93 -44 l0 -50 -42 2 -43 1 38 4 c36
4 37 6 37 43 0 37 -1 39 -37 43 l-38 4 43 1 42 2 0 -50z m-113 -27 c-3 -10 -5
-4 -5 12 0 17 2 24 5 18 2 -7 2 -21 0 -30z m-1837 -68 c0 -45 0 -45 -35 -45
-35 0 -35 0 -35 45 0 45 0 45 35 45 35 0 35 0 35 -45z m1903 -142 c-13 -2 -33
-2 -45 0 -13 2 -3 4 22 4 25 0 35 -2 23 -4z m1857 -123 l0 -40 -55 0 -55 0 0
-45 0 -45 -45 0 -45 0 0 -51 0 -51 -47 3 -48 3 -3 -92 -3 -92 -54 0 -55 0 0
-89 0 -89 -81 -7 -81 -7 4 -39 c2 -22 0 -39 -4 -39 -4 0 -8 -21 -10 -47 l-3
-48 -52 -3 -53 -3 0 -40 c0 -38 -1 -39 -35 -39 l-35 0 0 -50 0 -50 -73 0 -72
0 3 -45 4 -45 -49 0 -48 0 3 -45 4 -45 -51 0 -51 0 0 -45 0 -45 -90 0 -90 0 0
-45 0 -46 -87 3 -88 3 -3 68 c-2 55 -6 67 -20 68 -16 1 -15 2 1 6 30 8 20 33
-14 33 -26 0 -31 3 -26 20 3 11 1 18 -4 14 -5 -3 -9 1 -9 10 0 8 5 17 10 19 6
3 5 4 -2 3 -7 -2 -13 -15 -13 -29 -1 -14 -4 -29 -8 -33 -4 -4 -7 50 -7 120 0
70 -4 125 -9 122 -4 -3 -7 -17 -6 -31 2 -14 0 -25 -4 -25 -4 0 -8 16 -9 35 -1
26 3 35 16 36 9 1 -1 5 -23 8 -22 4 -43 5 -47 3 -5 -2 -8 -21 -8 -43 l0 -39
-45 0 -45 0 0 -44 0 -44 -50 -4 -50 -3 0 32 c0 17 -3 38 -6 47 -5 13 3 16 50
16 l56 0 0 45 0 45 45 0 45 0 0 40 0 40 45 0 c25 0 45 -5 45 -11 0 -5 5 -7 12
-3 9 6 9 9 0 12 -7 2 -12 23 -12 53 l0 49 45 0 45 0 0 44 0 44 40 -2 40 -3 0
49 0 48 50 0 50 0 0 45 0 45 51 0 51 0 -4 45 -3 45 42 0 43 0 0 51 0 52 45 -5
45 -6 0 49 0 49 45 0 45 0 0 45 0 45 143 2 142 2 -137 3 -138 4 0 34 0 35 450
0 450 0 0 -40z m-3823 -107 c-3 -10 -5 -2 -5 17 0 19 2 27 5 18 2 -10 2 -26 0
-35z m63 -68 c0 -41 2 -45 25 -45 23 0 25 -3 25 -50 l0 -50 45 0 45 0 0 -90 0
-90 45 0 45 0 0 -45 0 -45 45 0 45 0 0 -45 0 -45 45 0 45 0 0 -45 0 -45 -90 0
-90 0 0 38 0 38 43 -4 c31 -2 38 -1 27 7 -8 6 -47 11 -87 11 l-72 0 -3 88 -3
87 -36 3 c-35 3 -36 3 -37 -37 -2 -39 -1 -40 36 -44 l37 -4 -42 -1 -43 -2 0
135 0 135 -30 0 c-29 0 -30 1 -30 48 0 42 -3 48 -22 49 -12 1 -26 -3 -30 -10
-4 -7 -8 14 -8 46 l0 57 35 0 c35 0 35 0 35 -45z m670 -645 l0 -40 44 0 c25 0
48 -4 51 -10 4 -6 -11 -10 -39 -10 -66 0 -72 5 -68 50 l4 40 -37 0 c-37 0 -37
-1 -33 -35 l4 -35 -93 0 -93 0 0 40 0 40 130 0 130 0 0 -40z m2790 32 c0 -4
-17 -6 -37 -4 -65 6 -70 10 -15 11 28 0 52 -3 52 -7z m1440 -118 l0 -46 50 4
50 3 0 -52 0 -53 50 0 50 0 0 -45 0 -45 45 0 45 0 0 -45 0 -45 50 0 50 0 0
-45 0 -45 45 0 45 0 0 -48 0 -47 45 3 45 4 0 -51 0 -51 45 0 45 0 0 -45 0 -45
-467 2 -468 3 423 2 422 3 0 40 0 40 -1057 2 c-582 0 -1089 2 -1128 2 -38 1
-129 3 -200 4 l-131 2 4 40 4 39 -98 3 -99 3 -3 48 -3 47 100 0 101 0 1 -42
c1 -27 3 -34 6 -19 3 14 -1 51 -7 83 -12 56 -14 58 -46 58 -29 0 -33 -3 -37
-32 -4 -32 -4 -32 -5 5 l-2 37 45 0 45 0 0 46 0 47 98 -5 c53 -3 78 -3 55 -1
l-43 4 0 45 0 44 55 0 55 0 0 45 0 45 40 0 40 0 0 50 0 50 820 0 820 0 0 -46z
m-3513 -31 c-159 -2 -415 -2 -570 0 -155 1 -25 2 288 2 314 0 440 -1 282 -2z
m820 -43 c1 -11 -2 -22 -8 -25 -7 -5 -7 18 0 43 3 8 7 -1 8 -18z m-364 -77
l-93 -4 0 -29 c0 -28 2 -30 40 -30 22 0 40 -4 40 -10 0 -5 -20 -10 -45 -10
l-45 0 0 45 0 45 98 -2 97 -2 -92 -3z m-200 -90 c-24 -2 -62 -2 -85 0 -24 2
-5 4 42 4 47 0 66 -2 43 -4z m-135 -130 l-1 -48 -4 42 -4 42 -97 4 -97 3 103
2 102 2 -2 -47z m-25 -40 c-7 -2 -19 -2 -25 0 -7 3 -2 5 12 5 14 0 19 -2 13
-5z m-184 -25 c-1 -17 -3 -18 -6 -6 -4 15 -21 18 -131 21 l-127 3 133 2 c131
2 132 2 131 -20z m1021 -17 c0 -29 5 -41 18 -44 9 -3 -34 -5 -95 -6 l-113 -1
0 45 0 45 95 0 95 0 0 -39z m-1067 -48 c-29 -2 -77 -2 -105 0 -29 2 -6 3 52 3
58 0 81 -1 53 -3z m574 -19 c-3 -3 -12 -4 -19 -1 -8 3 -5 6 6 6 11 1 17 -2 13
-5z m56 -1 c-7 -2 -19 -2 -25 0 -7 3 -2 5 12 5 14 0 19 -2 13 -5z m114 0 c-20
-2 -52 -2 -70 0 -17 2 0 4 38 4 39 0 53 -2 32 -4z m133 -33 l0 -40 -177 2
-178 2 175 6 c96 3 165 7 153 8 -16 1 -23 9 -23 22 0 14 7 20 23 22 12 0 2 4
-23 8 l-45 7 48 1 47 2 0 -40z m2237 -136 c-3 -3 -12 -4 -19 -1 -8 3 -5 6 6 6
11 1 17 -2 13 -5z"/>
<path d="M4961 6188 c2 -30 2 -30 6 -6 3 22 10 28 36 31 31 4 31 4 -5 5 -37 2
-38 1 -37 -30z"/>
<path d="M6007 6208 c30 -10 31 -12 15 -24 -10 -8 -12 -13 -5 -14 7 0 10 -6 7
-13 -3 -8 4 -13 16 -14 18 -2 20 3 18 38 -2 39 -2 39 -42 38 l-41 -1 32 -10z"/>
<path d="M5980 6148 c0 -4 7 -8 15 -8 8 0 15 4 15 8 0 5 -7 9 -15 9 -8 0 -15
-4 -15 -9z"/>
<path d="M5021 6104 c0 -11 3 -14 6 -6 3 7 2 16 -1 19 -3 4 -6 -2 -5 -13z"/>
<path d="M5400 5931 c0 -5 9 -7 20 -4 11 3 20 7 20 9 0 2 -9 4 -20 4 -11 0
-20 -4 -20 -9z"/>
<path d="M5098 5843 c7 -3 16 -2 19 1 4 3 -2 6 -13 5 -11 0 -14 -3 -6 -6z"/>
<path d="M5310 5841 c0 -4 11 -6 25 -3 14 2 25 6 25 8 0 2 -11 4 -25 4 -14 0
-25 -4 -25 -9z"/>
<path d="M5378 5813 c5 -59 10 -63 11 -10 1 26 -3 47 -7 47 -4 0 -6 -17 -4
-37z"/>
<path d="M5312 5780 c0 -14 2 -19 5 -12 2 6 2 18 0 25 -3 6 -5 1 -5 -13z"/>
<path d="M5240 5746 c0 -2 13 -6 29 -8 17 -2 28 -1 25 4 -5 8 -54 12 -54 4z"/>
<path d="M5290 5620 c0 -39 -1 -40 -34 -40 -19 0 -37 6 -39 13 -3 7 -6 5 -6
-5 -1 -15 8 -18 44 -18 l45 0 0 45 c0 25 -2 45 -5 45 -3 0 -5 -18 -5 -40z"/>
<path d="M2695 5680 c-3 -5 -1 -10 4 -10 6 0 11 5 11 10 0 6 -2 10 -4 10 -3 0
-8 -4 -11 -10z"/>
<path d="M5873 5403 c9 -2 25 -2 35 0 9 3 1 5 -18 5 -19 0 -27 -2 -17 -5z"/>
<path d="M5968 5403 c6 -2 18 -2 25 0 6 3 1 5 -13 5 -14 0 -19 -2 -12 -5z"/>
<path d="M5992 4898 l1 -43 4 38 c4 33 7 37 28 33 14 -3 27 0 30 5 4 5 -10 9
-29 9 -36 0 -36 0 -34 -42z"/>
<path d="M4993 4653 c9 -2 23 -2 30 0 6 3 -1 5 -18 5 -16 0 -22 -2 -12 -5z"/>
<path d="M4958 4383 c6 -2 18 -2 25 0 6 3 1 5 -13 5 -14 0 -19 -2 -12 -5z"/>
<path d="M2965 4705 c0 -22 4 -25 38 -25 30 0 37 4 37 19 0 28 -20 37 -21 9 0
-15 -3 -18 -6 -8 -14 36 -48 39 -48 5z"/>
<path d="M5728 4203 c12 -2 30 -2 40 0 9 3 -1 5 -23 4 -22 0 -30 -2 -17 -4z"/>
<path d="M5873 4033 c9 -2 25 -2 35 0 9 3 1 5 -18 5 -19 0 -27 -2 -17 -5z"/>
<path d="M5703 4013 c9 -2 23 -2 30 0 6 3 -1 5 -18 5 -16 0 -22 -2 -12 -5z"/>
<path d="M5765 3993 c1 -16 0 -20 -2 -10 -3 12 -14 17 -39 17 -30 0 -34 -3
-34 -25 0 -23 3 -25 48 -25 l48 0 -4 35 c-5 41 -19 48 -17 8z"/>
</g>
</svg>
